# AST/ASF file generated using VICON BodyLanguage
# -----------------------------------------------
:version 1.10
:name VICON
:units
  mass 1.0
  length 0.45
  angle deg
:documentation
   .ast/.asf automatically generated from VICON data using
   VICON BodyBuilder and BodyLanguage model FoxedUp or BRILLIANT.MOD
:root
   order TX TY TZ RX RY RZ
   axis XYZ
   position 0 0 0  
   orientation 0 0 0 
:bonedata
  begin
     id 1 
     name lhipjoint
     direction 0.57768 -0.667037 0.470475 
     length 2.36008 
     axis 0 0 0  XYZ
  end
  begin
     id 2 
     name lfemur
     direction 0.34202 -0.939693 0  
     length 6.97235  
     axis 0 0 20  XYZ
    dof rx ry rz
    limits (-160.0 20.0)
           (-70.0 70.0)
           (-60.0 70.0)
  end
  begin
     id 3 
     name ltibia
     direction 0.34202 -0.939693 0   
     length 6.93428   
     axis 0 0 20   XYZ
    dof rx
    limits (-10.0 170.0)
  end
  begin
     id 4 
     name lfoot
     direction 0.133018 -0.365463 0.921272   
     length 2.18603   
     axis -90 7.62852e-016 20   XYZ
    dof rx rz
    limits (-45.0 90.0)
           (-70.0 20.0)
  end
  begin
     id 5 
     name ltoes
     direction 1.53519e-011 -4.22055e-011 1   
     length 1.07924   
     axis -90 7.62852e-016 20   XYZ
    dof rx
    limits (-90.0 20.0)
  end
  begin
     id 6 
     name rhipjoint
     direction -0.577712 -0.667019 0.470462   
     length 2.36015  
     axis 0 0 0  XYZ 
  end
  begin
     id 7 
     name rfemur
     direction -0.34202 -0.939693 0   
     length 6.71195   
     axis 0 0 -20   XYZ
    dof rx ry rz
    limits (-160.0 20.0)
           (-70.0 70.0)
           (-70.0 60.0)
  end
  begin
     id 8 
     name rtibia
     direction -0.34202 -0.939693 0   
     length 7.04592   
     axis 0 0 -20   XYZ
    dof rx
    limits (-10.0 170.0)
 end
 begin
     id 9 
     name rfoot
     direction -0.113796 -0.312651 0.943027   
     length 2.03846  
     axis -90 -7.62852e-016 -20   XYZ
    dof rx rz
    limits (-45.0 90.0)
           (-20.0 70.0)
  end
  begin
     id 10 
     name rtoes
     direction -1.53586e-011 -4.218e-011 1   
     length 1.01562   
     axis -90 -7.62852e-016 -20   XYZ
    dof rx
    limits (-90.0 20.0)
  end
  begin
     id 11 
     name lowerback
     direction -0.0417299 0.991937 -0.119667   
     length 2.05257   
     axis 0 0 0   XYZ
    dof rx ry rz
    limits (-20.0 45.0)
           (-30.0 30.0)
           (-30.0 30.0)
  end
  begin
     id 12 
     name upperback
     direction -0.00017666 0.999999 0.00105178   
     length 2.05693   
     axis 0 0 0   XYZ
    dof rx ry rz
    limits (-20.0 45.0)
           (-30.0 30.0)
           (-30.0 30.0)
  end
  begin
     id 13 
     name thorax
     direction 0.0185169 0.998203 0.0569866   
     length 2.0932   
     axis 0 0 0   XYZ
    dof rx ry rz
    limits (-20.0 45.0)
           (-30.0 30.0)
           (-30.0 30.0)
  end
  begin
     id 14 
     name lowerneck
     direction -0.0212406 0.982645 0.184277   
     length 1.72509   
     axis 0 0 0   XYZ
    dof rx ry rz
    limits (-20.0 45.0)
           (-30.0 30.0)
           (-30.0 30.0)
  end
  begin
     id 15 
     name upperneck
     direction 0.00528579 0.965323 -0.261004   
     length 1.76294   
     axis 0 0 0   XYZ
    dof rx ry rz
    limits (-20.0 45.0)
           (-30.0 30.0)
           (-30.0 30.0)
  end
  begin
     id 16
     name head
     direction 0.00695421 0.994078 -0.108445  
     length 1.78678  
     axis 0 0 0   XYZ
    dof rx ry rz
    limits (-20.0 45.0)
           (-30.0 30.0)
           (-30.0 30.0)
  end
  begin
     id 17 
     name lclavicle
     direction 0.97277 0.211305 -0.095232  
     length 3.84823  
     axis 0 0 0   XYZ
    dof ry rz
    limits (-20.0 10.0)
           (0.0 20.0)
  end
  begin
     id 18 
     name lhumerus
     direction 1 -4.48957e-011 -1.98313e-027   
     length 4.97185   
     axis 180 -30 -90   XYZ
    dof rx ry rz
    limits (-60.0 90.0)
           (-90.0 90.0)
           (-90.0 90.0)
  end
  begin
     id 19
     name lradius
     direction 1 -4.4898e-011 7.31063e-027   
     length 3.35811   
     axis 180 -30 -90   XYZ
    dof rx
    limits (-10.0 170.0)
  end
  begin
     id 20
     name lwrist
     direction 1 -4.48938e-011 9.95048e-027   
     length 1.67905   
     axis -8.75986e-015 90 90   XYZ
    dof ry
    limits (-180.0 0.0)
 end
  begin
     id 21 
     name lhand
     direction 1 -4.4901e-011 1.9901e-026   
     length 0.622776   
     axis -1.26985e-014 90 90   XYZ
    dof rx rz
    limits (-90.0 90.0)
           (-45.0 45.0)
  end
  begin
     id 22 
     name lfingers
     direction 1 -4.48961e-011 3.98019e-026   
     length 0.502098   
     axis -2.5397e-014 90 90   XYZ
    dof rx
    limits (0.0 90.0)
  end
  begin
     id 23
     name lthumb
     direction 0.707107 -6.34933e-011 0.707107   
     length 0.720915   
     axis -90 45 2.85299e-015   XYZ
    dof rx rz
    limits (-45.0 45.0)
           (-45.0 45.0)
  end
  begin
     id 24 
     name rclavicle
     direction -0.990867 0.133739 -0.0172226   
     length 3.78845  
     axis 0 0 0   XYZ 
    dof ry rz
    limits (-10.0 20.0)
           (-20.0 0.0)
  end
  begin
     id 25 
     name rhumerus
     direction -1 -4.48972e-011 -1.99267e-027  
     length 4.96493   
     axis 180 30 90   XYZ
    dof rx ry rz
    limits (-90.0 60.0)
           (-90.0 90.0)
           (-90.0 90.0)
  end
  begin
     id 26 
     name rradius
     direction -1 -4.48969e-011 8.96093e-027   
     length 3.34929   
     axis 180 30 90   XYZ
    dof rx
    limits (-10.0 170.0)
  end
  begin
     id 27 
     name rwrist
     direction -1 -4.48953e-011 9.95048e-027   
     length 1.67464   
     axis -8.75986e-015 -90 -90   XYZ
    dof ry
    limits (-180.0 0.0)
  end
  begin
     id 28
     name rhand
     direction -1 -4.49001e-011 1.9901e-026   
     length 0.638041   
     axis -1.26985e-014 -90 -90   XYZ
    dof rx rz
    limits (-90.0 90.0)
           (-45.0 45.0)
  end
  begin
     id 29
     name rfingers
     direction -1 -4.48967e-011 3.98019e-026   
     length 0.514405   
     axis -2.5397e-014 -90 -90   XYZ
    dof rx
    limits (0.0 90.0)
  end
  begin
     id 30
     name rthumb
     direction -0.707107 -6.34904e-011 0.707107   
     length 0.738586   
     axis -90 -45 -2.85299e-015   XYZ
    dof rx rz
    limits (-45.0 45.0)
           (-45.0 45.0)
  end
:hierarchy
  begin
    root lhipjoint rhipjoint lowerback
    lhipjoint lfemur
    lfemur ltibia
    ltibia lfoot
    lfoot ltoes
    rhipjoint rfemur
    rfemur rtibia
    rtibia rfoot
    rfoot rtoes
    lowerback upperback
    upperback thorax
    thorax lowerneck lclavicle rclavicle
    lowerneck upperneck
    upperneck head
    lclavicle lhumerus
    lhumerus lradius
    lradius lwrist
    lwrist lhand lthumb
    lhand lfingers
    rclavicle rhumerus
    rhumerus rradius
    rradius rwrist
    rwrist rhand rthumb
    rhand rfingers
  end

#!OML:ASF E:\Mandelcareful walks\Project 1\Capture day 1\Session 1\Subject1.ASF
:FULLY-SPECIFIED
:DEGREES
273
root -3.43903 12.9068 -2.54848 33.2761 59.1824 10.5326
lowerback 46.1637 -1.13048 -0.530436
upperback 10.3467 0.330451 5.73906
thorax -9.72739 0.424772 6.30109
lowerneck -24.7353 -13.9191 -11.7109
upperneck 3.67049 -17.3646 17.9437
head 7.76091 -7.24027 5.13196
rclavicle -3.81667e-014 -1.55052e-014
rhumerus 25.3242 0.85122 -65.3143
rradius 51.4101
rwrist -17.063
rhand -15.5632 -28.5606
rfingers 7.12502
rthumb 10.6215 -58.2721
lclavicle -3.81667e-014 -1.55052e-014
lhumerus 16.8575 -21.5169 61.0054
lradius 55.7006
lwrist 21.6913
lhand -24.3576 -14.9882
lfingers 7.12502
lthumb 2.13196 14.9809
rfemur -85.074 -14.1298 5.56354
rtibia 86.758
rfoot -21.0728 10.5268
rtoes -0.870086
lfemur -78.8203 31.0659 -35.0312
ltibia 97.3206
lfoot -39.8689 18.6515
ltoes -12.1496
274
root -3.42673 12.9084 -2.50814 33.5421 58.873 11.1323
lowerback 46.0698 -1.44079 -0.516181
upperback 10.29 -0.0556791 5.60646
thorax -9.72083 0.254602 6.32157
lowerneck -24.4487 -14.0317 -12.2306
upperneck 2.90404 -17.361 18.51
head 7.57984 -7.24952 5.41098
rclavicle -1.06549e-013 1.15295e-014
rhumerus 25.1548 1.30484 -65.6069
rradius 51.2516
rwrist -17.051
rhand -15.5485 -28.3166
rfingers 7.12502
rthumb 10.6357 -58.0274
lclavicle -1.06549e-013 1.15295e-014
lhumerus 16.5356 -21.4911 61.1813
lradius 55.6667
lwrist 21.5234
lhand -24.4699 -14.5655
lfingers 7.12502
lthumb 2.02358 15.4046
rfemur -84.8469 -14.31 5.39254
rtibia 86.9921
rfoot -21.2077 11.0847
rtoes 0.533037
lfemur -78.2069 31.3038 -35.1236
ltibia 97.2555
lfoot -39.9837 18.6911
ltoes -12.011
275
root -3.4187 12.9009 -2.46316 33.3537 58.5267 10.9317
lowerback 45.8068 -1.31838 -0.93379
upperback 10.1802 -0.0499429 6.05976
thorax -9.79894 0.247796 7.039
lowerneck -23.9252 -14.2246 -13.3396
upperneck 2.10279 -17.3179 19.0938
head 7.39805 -7.26146 5.79994
rclavicle -6.67916e-014 -9.14409e-014
rhumerus 25.1025 2.08099 -65.2425
rradius 50.9701
rwrist -17.1318
rhand -15.429 -28.268
rfingers 7.12502
rthumb 10.751 -57.9728
lclavicle -6.67916e-014 -9.14409e-014
lhumerus 15.8981 -21.1695 62.1873
lradius 55.6249
lwrist 21.6288
lhand -24.5982 -14.5834
lfingers 7.12502
lthumb 1.89966 15.3879
rfemur -84.9943 -14.063 5.59663
rtibia 87.2318
rfoot -21.3622 11.1659
rtoes 1.21285
lfemur -78.1012 31.8417 -35.0249
ltibia 97.2923
lfoot -39.9912 18.5576
ltoes -11.6582
276
root -3.42396 12.8893 -2.41815 33.1572 58.0776 10.6751
lowerback 45.6011 -1.35105 -0.732253
upperback 10.1404 -0.0629384 5.79193
thorax -9.77714 0.240768 6.64179
lowerneck -23.8109 -14.4982 -13.4124
upperneck 1.27749 -17.6765 19.9252
head 7.28495 -7.41346 6.01819
rclavicle 5.56597e-014 6.36111e-014
rhumerus 24.8257 1.8523 -65.7399
rradius 50.8804
rwrist -17.177
rhand -15.3654 -28.5901
rfingers 7.12502
rthumb 10.8123 -58.2918
lclavicle 5.56597e-014 6.36111e-014
lhumerus 16.2542 -21.7738 61.4279
lradius 55.7954
lwrist 22.4
lhand -24.7682 -14.6349
lfingers 7.12502
lthumb 1.7354 15.3378
rfemur -85.3171 -13.5992 5.79294
rtibia 87.4434
rfoot -21.4755 11.0267
rtoes 1.35879
lfemur -78.2 32.4906 -35.0485
ltibia 97.3425
lfoot -39.8621 18.5684
ltoes -11.8088
277
root -3.4416 12.8803 -2.37432 32.9996 57.6115 10.5465
lowerback 45.6353 -0.989646 0.366241
upperback 9.82477 0.678318 4.86356
thorax -10.1695 0.578676 4.72378
lowerneck -23.0105 -15.0266 -11.3053
upperneck -0.00198075 -18.908 20.1696
head 6.78919 -8.09008 5.57592
rclavicle -7.95139e-015 1.38752e-013
rhumerus 23.0579 -1.11037 -67.0269
rradius 50.8209
rwrist -16.6851
rhand -15.1888 -28.5354
rfingers 7.12502
rthumb 10.9826 -58.2281
lclavicle -7.95139e-015 1.38752e-013
lhumerus 18.2243 -25.0989 59.3463
lradius 55.9126
lwrist 23.4083
lhand -24.6738 -14.3307
lfingers 7.12502
lthumb 1.82657 15.6413
rfemur -85.6076 -13.1149 5.93372
rtibia 87.6337
rfoot -21.4728 11.0087
rtoes 2.20117
lfemur -78.2353 33.0734 -35.0669
ltibia 97.3511
lfoot -39.6814 18.7167
ltoes -12.2538
278
root -3.45507 12.8725 -2.32781 32.4398 57.2748 9.88101
lowerback 45.462 -1.05667 0.00733761
upperback 9.829 0.470064 5.16321
thorax -10.1194 0.478807 5.33159
lowerneck -23.1664 -15.032 -11.8716
upperneck -0.273293 -18.7222 20.3372
head 6.77101 -7.9941 5.74682
rclavicle -8.42847e-014 -4.8901e-014
rhumerus 23.5453 -0.0748264 -67.1539
rradius 50.4635
rwrist -16.8281
rhand -15.0713 -28.0736
rfingers 7.12502
rthumb 11.096 -57.7603
lclavicle -8.42847e-014 -4.8901e-014
lhumerus 17.4543 -24.0747 60.5116
lradius 55.5786
lwrist 22.8295
lhand -24.2136 -14.6047
lfingers 7.12502
lthumb 2.27107 15.3629
rfemur -85.8717 -12.5087 6.37375
rtibia 87.7977
rfoot -21.5264 10.9627
rtoes 2.77967
lfemur -78.3245 33.7115 -34.6784
ltibia 97.3766
lfoot -39.5231 18.6047
ltoes -12.1749
279
root -3.45748 12.866 -2.2829 31.9807 56.9296 9.32676
lowerback 45.2229 -0.952427 -0.442041
upperback 9.74252 0.4396 5.59441
thorax -10.1766 0.457686 6.05429
lowerneck -22.9508 -15.0064 -12.1618
upperneck -0.576289 -18.5537 20.1163
head 6.61022 -7.9569 5.76751
rclavicle -8.42847e-014 -4.57205e-014
rhumerus 23.5756 0.986308 -66.8641
rradius 50.4201
rwrist -17.3908
rhand -15.2272 -27.8293
rfingers 7.12502
rthumb 10.9456 -57.524
lclavicle -8.42847e-014 -4.57205e-014
lhumerus 16.6797 -23.729 61.0668
lradius 55.7379
lwrist 23.2118
lhand -24.3417 -14.71
lfingers 7.12502
lthumb 2.14734 15.2589
rfemur -85.9958 -11.9478 6.64169
rtibia 87.9357
rfoot -21.7126 11.0249
rtoes 2.71984
lfemur -78.3006 34.2995 -34.321
ltibia 97.3837
lfoot -39.4074 18.4448
ltoes -11.9522
280
root -3.46061 12.8664 -2.24031 31.566 56.5592 9.08046
lowerback 45.342 -0.868614 -1.44431
upperback 9.82824 0.226993 6.38768
thorax -10.1332 0.357168 7.55481
lowerneck -23.5143 -15.0426 -13.4179
upperneck -0.496685 -18.2059 20.1415
head 6.77529 -7.74911 6.00917
rclavicle -3.18055e-015 -9.06458e-014
rhumerus 24.5267 2.67298 -66.3388
rradius 50.0692
rwrist -17.6869
rhand -14.9746 -27.2963
rfingers 7.12502
rthumb 11.1892 -56.9779
lclavicle -3.18055e-015 -9.06458e-014
lhumerus 15.6511 -22.5694 61.8636
lradius 56.0712
lwrist 23.9048
lhand -25.2844 -14.58
lfingers 7.12502
lthumb 1.23685 15.3962
rfemur -85.8104 -11.4685 6.72913
rtibia 88.0427
rfoot -21.8447 11.205
rtoes 3.35488
lfemur -77.9081 34.8272 -33.9875
ltibia 97.336
lfoot -39.3536 18.4655
ltoes -12.1383
281
root -3.46702 12.8686 -2.1969 30.9758 56.3333 8.76084
lowerback 45.6265 -1.14357 -0.806423
upperback 9.7416 0.105563 5.88091
thorax -10.2655 0.305599 6.71804
lowerneck -23.3634 -15.215 -12.9194
upperneck -0.889333 -18.6033 20.6545
head 6.71865 -7.93485 6.0263
rclavicle -5.24792e-014 -4.96962e-014
rhumerus 24.4044 1.87416 -67.7481
rradius 49.5765
rwrist -17.1308
rhand -14.7085 -26.874
rfingers 7.12502
rthumb 11.4459 -56.5416
lclavicle -5.24792e-014 -4.96962e-014
lhumerus 15.9546 -23.4329 60.9432
lradius 56.2809
lwrist 24.6269
lhand -25.3555 -14.5973
lfingers 7.12502
lthumb 1.16822 15.3792
rfemur -85.4933 -11.0707 6.9828
rtibia 88.1559
rfoot -21.9876 11.2904
rtoes 4.14918
lfemur -77.4069 35.322 -33.4833
ltibia 97.294
lfoot -39.2472 18.5156
ltoes -12.5168
282
root -3.47528 12.8647 -2.15319 30.6395 56.2266 8.51676
lowerback 45.7302 -1.07482 -0.88112
upperback 9.58333 0.189413 6.12862
thorax -10.4971 0.343088 7.00076
lowerneck -23.144 -15.3512 -12.9175
upperneck -1.07986 -18.7886 20.6724
head 6.65566 -8.04752 6.00382
rclavicle 5.08889e-014 -2.62396e-014
rhumerus 24.2243 1.94353 -67.9065
rradius 49.4194
rwrist -17.1081
rhand -14.6485 -26.999
rfingers 7.12502
rthumb 11.5038 -56.6634
lclavicle 5.08889e-014 -2.62396e-014
lhumerus 15.5346 -23.3766 62.3364
lradius 55.8609
lwrist 23.6726
lhand -25.1791 -14.9864
lfingers 7.12502
lthumb 1.3386 14.9891
rfemur -85.4488 -10.8664 7.33579
rtibia 88.3128
rfoot -22.1536 11.2639
rtoes 4.50416
lfemur -77.1966 35.6251 -33.0937
ltibia 97.2717
lfoot -39.0628 18.6477
ltoes -13.0606
283
root -3.48379 12.8635 -2.11248 30.5274 56.0515 8.36174
lowerback 45.6146 -1.22243 -0.0654525
upperback 9.35701 0.249287 5.44803
thorax -10.6953 0.369015 5.79841
lowerneck -22.6896 -15.5083 -11.6402
upperneck -1.43187 -19.3712 20.9233
head 6.48698 -8.36406 5.79971
rclavicle -6.75868e-014 2.78299e-015
rhumerus 23.4509 0.592475 -69.2415
rradius 49.3666
rwrist -16.9091
rhand -14.5091 -27.0546
rfingers 7.12502
rthumb 11.6382 -56.7114
lclavicle -6.75868e-014 2.78299e-015
lhumerus 16.1356 -24.8673 61.3466
lradius 55.7502
lwrist 23.5801
lhand -25.5653 -15.0154
lfingers 7.12502
lthumb 0.965629 14.9622
rfemur -85.611 -10.7353 7.6831
rtibia 88.4346
rfoot -22.1966 11.3228
rtoes 4.77131
lfemur -77.1487 35.791 -32.8489
ltibia 97.2274
lfoot -38.9639 18.8578
ltoes -13.4272
